<?xml version="1.0" encoding="utf-8"?>
<!-- Generator: Adobe Illustrator 16.0.0, SVG Export Plug-In . SVG Version: 6.00 Build 0)  -->
<!DOCTYPE svg PUBLIC "-//W3C//DTD SVG 1.1//EN" "http://www.w3.org/Graphics/SVG/1.1/DTD/svg11.dtd">
<svg version="1.1" id="Layer_1" xmlns="http://www.w3.org/2000/svg" xmlns:xlink="http://www.w3.org/1999/xlink" x="0px" y="0px"
	 width="60px" height="60px" viewBox="0 0 60 60" enable-background="new 0 0 60 60" xml:space="preserve">
<g>
	<defs>
		<circle id="SVGID_1_" cx="30" cy="24.167" r="35.833"/>
	</defs>
	<clipPath id="SVGID_2_">
		<use xlink:href="#SVGID_1_"  overflow="visible"/>
	</clipPath>
	<g clip-path="url(#SVGID_2_)">
		<path fill="#F5D2C3" d="M42.014,67.218c0-1.423,0-3.013,0.002-4.605h4.676C46.65,65.162,44.574,67.218,42.014,67.218z"/>
		<g>
			<g>
				<path fill="#503B28" d="M51.832,39.57c0,11.069-9.057,20.126-20.127,20.126h-3.413c-11.069,0-20.125-9.057-20.125-20.126V20.276
					c0-11.069,9.057-20.125,20.125-20.125h3.413c11.07,0,20.127,9.057,20.127,20.125V39.57z"/>
			</g>
			<rect x="24.471" y="83.419" fill="#4C433F" width="4.104" height="4.298"/>
			<rect x="31.482" y="83.419" fill="#4C433F" width="4.102" height="4.298"/>
			<path fill="#F5D2C3" d="M17.984,67.218c0-1.423,0-3.013-0.002-4.605h-4.675C13.35,65.162,15.425,67.218,17.984,67.218z"/>
			<path fill="#EDECED" d="M13.308,62.615h15.06V40.378C19.547,43.915,13.308,52.529,13.308,62.615z"/>
			<path fill="#EDECED" d="M13.308,62.615h15.06V40.378C19.547,43.915,13.308,52.529,13.308,62.615z"/>
			<path fill="#EDECED" d="M46.691,62.615H31.633V40.378C40.451,43.915,46.691,52.529,46.691,62.615z"/>
			<path fill="#EDECED" d="M43.105,58.888l-11.473,3.726V40.378c5.785,2.321,10.461,6.829,12.992,12.501
				C44.625,52.879,43.105,55.42,43.105,58.888z"/>
			<g>
				<rect x="24.504" y="73.393" fill="#4C433F" width="4.104" height="14.324"/>
				<rect x="31.486" y="73.393" fill="#4C433F" width="4.104" height="14.324"/>
				<circle fill="#4C433F" cx="24.421" cy="85.568" r="2.149"/>
				<circle fill="#4C433F" cx="35.591" cy="85.568" r="2.147"/>
			</g>
			<polygon fill="#F3C4B6" points="37.576,42.229 30.021,51.169 22.468,42.229 			"/>
			<rect x="23.423" y="48.484" fill="#EDECED" width="13.79" height="12.221"/>
			<g>
				<g>
					<path fill="#4C433F" d="M29.896,48.484c2.188,1.094,4.912,0.598,6.555-1.359c1.639-1.952,1.652-4.727,0.197-6.689
						L29.896,48.484z"/>
				</g>
				<g>
					<path fill="#4C433F" d="M30.454,48.484c-2.19,1.094-4.916,0.598-6.558-1.359c-1.641-1.952-1.655-4.727-0.196-6.689
						L30.454,48.484z"/>
				</g>
			</g>
			<g>
				<path fill="#4C433F" d="M28.413,52.369v-1.2h1.772C29.903,51.872,29.217,52.369,28.413,52.369z"/>
				<path fill="#4C433F" d="M31.934,52.369v-1.2h-1.77C30.445,51.872,31.129,52.369,31.934,52.369z"/>
			</g>
			<g>
				<defs>
					<path id="SVGID_3_" d="M13.308,62.615h15.06V40.378C19.547,43.915,13.308,52.529,13.308,62.615z"/>
				</defs>
				<clipPath id="SVGID_4_">
					<use xlink:href="#SVGID_3_"  overflow="visible"/>
				</clipPath>
				<rect x="20.346" y="44.36" clip-path="url(#SVGID_4_)" fill="#AA3326" width="1.283" height="17.756"/>
			</g>
			<g>
				<defs>
					<path id="SVGID_5_" d="M43.234,62.165l-11.602,0.448V40.378c5.785,2.321,10.461,6.829,12.992,12.501
						C44.625,52.879,43.234,58.698,43.234,62.165z"/>
				</defs>
				<clipPath id="SVGID_6_">
					<use xlink:href="#SVGID_5_"  overflow="visible"/>
				</clipPath>
				<rect x="38.385" y="44.285" clip-path="url(#SVGID_6_)" fill="#AA3326" width="1.281" height="17.628"/>
			</g>
			<g opacity="0.1">
				<defs>
					<path id="SVGID_7_" opacity="0.1" d="M41.262,38.316c0,4.635-4.918,8.078-10.987,8.078c-6.066,0-10.984-3.443-10.984-8.078
						c0-4.637,4.918-8.395,10.984-8.395C36.344,29.922,41.262,33.68,41.262,38.316z"/>
				</defs>
				<clipPath id="SVGID_8_">
					<use xlink:href="#SVGID_7_"  overflow="visible" opacity="0.1"/>
				</clipPath>
				<g clip-path="url(#SVGID_8_)">
					<g>
						<path d="M29.896,48.484c2.188,1.094,4.912,0.598,6.555-1.359c1.639-1.952,1.652-4.727,0.197-6.689L29.896,48.484z"/>
					</g>
					<g>
						<path d="M30.454,48.484c-2.19,1.094-4.916,0.598-6.558-1.359c-1.641-1.952-1.655-4.727-0.196-6.689L30.454,48.484z"/>
					</g>
				</g>
			</g>
			<g>
				<path fill="#F5D2C3" d="M50.191,25.802c0,10.344-9.211,19.244-20.032,19.244h-0.978c-10.818,0-19.373-8.899-19.373-19.244V19.1
					c0-10.343,8.555-14.113,19.373-14.113h0.978c10.821,0,20.032,3.728,20.032,14.071V25.802z"/>
				<g>
					<path fill="#F3C4B6" d="M45.381,9.362l-8.018-3.742L26.888,4.607L12.101,10.79l-2.196,9.082H9.496
						c0,0,13.86,0.602,16.109,0.602c4.572,0,8.088-2.156,9.756-7.88c0,0,1.506,7.88,8.465,7.88h0.119l6.57-0.634l0,0l-1.521-7.299
						L45.381,9.362z"/>
					<path fill="#503B28" d="M45.764,7.968l-8.4-2.981L26.888,3.974l-8.859,1.902l-5.928,4.279l-2.028,5.071L9.279,19.84h2.497
						c0,0,11.58,0,13.829,0c4.572,0,8.088-2.893,9.756-8.618c0,0,1.506,8.618,8.465,8.618h0.119h6.773l-1.312-7.656L45.764,7.968z"
						/>
				</g>
				<g>
					<g>
						<circle fill="#FAC7BA" cx="18.175" cy="32.508" r="3.535"/>
						<circle fill="#FAC7BA" cx="41.823" cy="32.508" r="3.535"/>
					</g>
					<g>
						<g>
							<circle fill="#4C433F" cx="24.226" cy="26.59" r="1.573"/>
							<circle fill="#4C433F" cx="35.774" cy="26.59" r="1.573"/>
						</g>
						<g>
							<path fill="#F59280" d="M30.001,37.287c1.868,0,3.382-1.517,3.382-3.384h-6.765C26.618,35.771,28.131,37.287,30.001,37.287z"
								/>
						</g>
					</g>
				</g>
			</g>
			<g>
				<polygon fill="#AA3326" points="42.125,60.705 17.897,60.705 16.211,73.656 43.799,73.656 				"/>
			</g>
			<g opacity="0.05">
				<defs>
					<polygon id="SVGID_9_" opacity="0.05" points="29.787,60.705 29.787,73.656 43.799,73.656 42.125,60.705 					"/>
				</defs>
				<use xlink:href="#SVGID_9_"  overflow="visible" fill="#FFFFFF"/>
				<clipPath id="SVGID_10_">
					<use xlink:href="#SVGID_9_"  overflow="visible"/>
				</clipPath>
				<g clip-path="url(#SVGID_10_)">
					<polygon points="42.125,60.705 17.897,60.705 16.211,73.656 43.799,73.656 					"/>
				</g>
			</g>
		</g>
		<g>
			<path fill="#F5D2C3" d="M52.768,24.491c0,1.426-1.15,2.578-2.576,2.578l0,0c-1.424,0-2.578-1.152-2.578-2.578v-2.072
				c0-1.423,1.154-2.579,2.578-2.579l0,0c1.426,0,2.576,1.155,2.576,2.579V24.491z"/>
			<path fill="#F5D2C3" d="M12.388,24.491c0,1.426-1.154,2.578-2.577,2.578l0,0c-1.424,0-2.578-1.152-2.578-2.578v-2.072
				c0-1.423,1.154-2.579,2.578-2.579l0,0c1.423,0,2.577,1.155,2.577,2.579V24.491z"/>
		</g>
	</g>
</g>
</svg>
