<?xml version="1.0" encoding="utf-8"?>
<!-- Generator: Adobe Illustrator 16.0.0, SVG Export Plug-In . SVG Version: 6.00 Build 0)  -->
<!DOCTYPE svg PUBLIC "-//W3C//DTD SVG 1.1//EN" "http://www.w3.org/Graphics/SVG/1.1/DTD/svg11.dtd">
<svg version="1.1" id="Layer_1" xmlns="http://www.w3.org/2000/svg" xmlns:xlink="http://www.w3.org/1999/xlink" x="0px" y="0px"
	 width="20px" height="20px" viewBox="0 0 20 20" enable-background="new 0 0 20 20" xml:space="preserve">
<g>
	<path fill="#FBFAF9" d="M19.59,17.612c0.547,0.546,0.547,1.432,0,1.979l0,0c-0.546,0.545-1.431,0.546-1.978,0L0.411,2.388
		C-0.136,1.842-0.136,0.956,0.41,0.41l0,0c0.547-0.546,1.433-0.547,1.979,0L19.59,17.612z"/>
	<path fill="#FBFAF9" d="M2.387,19.59c-0.545,0.547-1.432,0.545-1.978,0l0,0c-0.546-0.546-0.546-1.432,0-1.978L17.611,0.41
		c0.547-0.547,1.433-0.547,1.979-0.001l0,0c0.547,0.547,0.547,1.433,0,1.979L2.387,19.59z"/>
</g>
</svg>
