<?xml version="1.0" encoding="utf-8"?>
<!-- Generator: Adobe Illustrator 16.0.0, SVG Export Plug-In . SVG Version: 6.00 Build 0)  -->
<!DOCTYPE svg PUBLIC "-//W3C//DTD SVG 1.1//EN" "http://www.w3.org/Graphics/SVG/1.1/DTD/svg11.dtd">
<svg version="1.1" id="Layer_1" xmlns="http://www.w3.org/2000/svg" xmlns:xlink="http://www.w3.org/1999/xlink" x="0px" y="0px"
	 width="30px" height="30px" viewBox="0 0 30 30" enable-background="new 0 0 30 30" xml:space="preserve">
<g>
	<path fill="#4DB688" d="M30,4.226c0,1.205-0.975,2.183-2.18,2.183H2.182C0.978,6.409,0,5.433,0,4.226l0,0
		C0,3.02,0.977,2.043,2.182,2.043H27.82C29.025,2.044,30,3.02,30,4.226L30,4.226z"/>
	<path fill="#4DB688" d="M30,15c0,1.207-0.975,2.181-2.18,2.181H2.182C0.978,17.182,0,16.207,0,15l0,0
		c0-1.205,0.977-2.184,2.182-2.184H27.82C29.025,12.817,30,13.795,30,15L30,15z"/>
	<path fill="#4DB688" d="M30,25.773c0,1.203-0.975,2.184-2.18,2.184H2.182C0.978,27.957,0,26.977,0,25.773l0,0
		c0-1.205,0.977-2.18,2.182-2.18H27.82C29.025,23.594,30,24.568,30,25.773L30,25.773z"/>
</g>
</svg>
