<?xml version="1.0" encoding="utf-8"?>
<!-- Generator: Adobe Illustrator 16.0.0, SVG Export Plug-In . SVG Version: 6.00 Build 0)  -->
<!DOCTYPE svg PUBLIC "-//W3C//DTD SVG 1.1//EN" "http://www.w3.org/Graphics/SVG/1.1/DTD/svg11.dtd">
<svg version="1.1" id="Layer_1" xmlns="http://www.w3.org/2000/svg" xmlns:xlink="http://www.w3.org/1999/xlink" x="0px" y="0px"
	 width="40px" height="40px" viewBox="0 0 40 40" enable-background="new 0 0 40 40" xml:space="preserve">
<g>
	<path fill="#5D5D5D" d="M13.771,13.39c-0.897,0-1.602,0.255-2.095,0.758c-0.494,0.505-0.746,1.309-0.746,2.389v6.928
		c0,1.078,0.252,1.883,0.748,2.39c0.492,0.503,1.197,0.757,2.093,0.757c0.895,0,1.603-0.254,2.105-0.758
		c0.502-0.506,0.756-1.309,0.756-2.389v-6.928c0-1.081-0.254-1.885-0.756-2.388C15.376,13.645,14.668,13.39,13.771,13.39z"/>
	<path fill="#5D5D5D" d="M20,0C8.954,0,0,8.955,0,20c0,11.045,8.954,20,20,20s20-8.955,20-20C40,8.955,31.046,0,20,0z
		 M18.771,23.465c0,0.934-0.129,1.734-0.382,2.38c-0.253,0.649-0.613,1.188-1.07,1.599c-0.459,0.41-0.998,0.709-1.605,0.889
		c-0.602,0.178-1.255,0.27-1.942,0.27c-0.687,0-1.34-0.092-1.944-0.27c-0.606-0.18-1.144-0.479-1.595-0.889
		c-0.445-0.408-0.802-0.945-1.058-1.598c-0.252-0.645-0.381-1.445-0.381-2.381v-6.928c0-0.935,0.129-1.735,0.381-2.379
		c0.255-0.652,0.61-1.19,1.058-1.599c0.451-0.41,0.988-0.708,1.595-0.888c0.604-0.178,1.258-0.27,1.944-0.27
		c0.688,0,1.341,0.091,1.942,0.27c0.607,0.18,1.146,0.479,1.604,0.888c0.459,0.413,0.819,0.951,1.071,1.6
		c0.253,0.646,0.382,1.446,0.382,2.379V23.465z M24.664,16.126l1.622-1.137c0.163-0.116,0.372-0.148,0.618-0.094
		c0.241,0.056,0.44,0.193,0.59,0.404c0.17,0.243,0.234,0.484,0.191,0.718c-0.041,0.233-0.146,0.411-0.312,0.526l-1.621,1.138
		c-0.145,0.1-0.293,0.149-0.44,0.149c-0.064,0-0.13-0.01-0.195-0.029c-0.205-0.062-0.393-0.214-0.555-0.449
		c-0.146-0.207-0.218-0.425-0.216-0.647C24.346,16.469,24.456,16.269,24.664,16.126z M22.967,27.524
		c0,0.487-0.285,1.007-1.087,1.007c-0.792,0-1.072-0.533-1.072-0.988L20.793,12.47c0-0.372,0.229-1.001,1.087-1.001
		c0.803,0,1.087,0.553,1.087,1.025V27.524z M25.312,23.706c-0.064,0-0.131-0.01-0.196-0.028c-0.202-0.062-0.388-0.213-0.553-0.447
		c-0.146-0.209-0.22-0.428-0.218-0.649c0-0.233,0.106-0.429,0.315-0.579l1.625-1.136c0.163-0.116,0.376-0.148,0.621-0.093
		c0.242,0.057,0.44,0.191,0.589,0.404c0.167,0.238,0.23,0.479,0.19,0.714c-0.041,0.233-0.146,0.411-0.309,0.528l-1.625,1.136
		C25.61,23.655,25.462,23.706,25.312,23.706z M30.142,27.49c-0.636,0.679-1.523,1.037-2.567,1.037c-0.593,0-1.075-0.482-1.075-1.074
		c0-0.594,0.482-1.077,1.075-1.077c0.443,0,0.768-0.116,0.994-0.356c0.506-0.541,0.485-1.566,0.481-1.681l-0.004-11.825
		c0-0.694,0.384-1.077,1.079-1.077c0.674,0,1.075,0.403,1.075,1.077v11.751C31.201,24.275,31.346,26.197,30.142,27.49z"/>
</g>
</svg>
