<?xml version="1.0" encoding="utf-8"?>
<!-- Generator: Adobe Illustrator 16.0.0, SVG Export Plug-In . SVG Version: 6.00 Build 0)  -->
<!DOCTYPE svg PUBLIC "-//W3C//DTD SVG 1.1//EN" "http://www.w3.org/Graphics/SVG/1.1/DTD/svg11.dtd">
<svg version="1.1" id="Layer_1" xmlns="http://www.w3.org/2000/svg" xmlns:xlink="http://www.w3.org/1999/xlink" x="0px" y="0px"
	 width="40px" height="40px" viewBox="0 0 40 40" enable-background="new 0 0 40 40" xml:space="preserve">
<g>
	<path fill="#5D5D5D" d="M13.771,13.39c-0.897,0-1.601,0.254-2.094,0.757c-0.495,0.506-0.746,1.31-0.746,2.39v6.929
		c0,1.078,0.251,1.882,0.747,2.389c0.493,0.503,1.198,0.757,2.093,0.757c0.896,0,1.603-0.254,2.105-0.758
		c0.502-0.505,0.757-1.31,0.757-2.388v-6.929c0-1.081-0.254-1.885-0.757-2.389C15.376,13.645,14.668,13.39,13.771,13.39z"/>
	<path fill="#5D5D5D" d="M20,0C8.954,0,0,8.954,0,20s8.954,20,20,20s20-8.954,20-20S31.046,0,20,0z M18.771,23.466
		c0,0.933-0.128,1.733-0.381,2.38c-0.253,0.649-0.613,1.187-1.07,1.598c-0.458,0.409-0.998,0.708-1.606,0.889
		c-0.602,0.179-1.254,0.27-1.942,0.27c-0.686,0-1.34-0.091-1.943-0.27c-0.607-0.18-1.144-0.479-1.596-0.889
		c-0.446-0.408-0.802-0.946-1.058-1.598c-0.252-0.646-0.38-1.446-0.38-2.38v-6.929c0-0.935,0.128-1.735,0.38-2.379
		c0.255-0.652,0.611-1.19,1.058-1.599c0.452-0.41,0.988-0.709,1.596-0.888c0.603-0.179,1.257-0.27,1.943-0.27
		c0.688,0,1.34,0.091,1.942,0.27c0.608,0.18,1.147,0.479,1.605,0.887c0.459,0.413,0.819,0.951,1.071,1.6
		c0.253,0.646,0.381,1.446,0.381,2.379V23.466z M24.664,16.126l1.622-1.138c0.163-0.115,0.371-0.148,0.618-0.094
		c0.242,0.057,0.44,0.192,0.59,0.404c0.17,0.243,0.234,0.484,0.191,0.718c-0.041,0.233-0.146,0.411-0.312,0.526l-1.621,1.138
		c-0.145,0.099-0.293,0.149-0.44,0.149c-0.064,0-0.13-0.01-0.194-0.029c-0.206-0.062-0.393-0.214-0.556-0.45
		c-0.146-0.207-0.218-0.424-0.216-0.646C24.346,16.469,24.456,16.269,24.664,16.126z M22.967,27.524
		c0,0.487-0.285,1.007-1.087,1.007c-0.792,0-1.072-0.532-1.072-0.989l-0.015-15.073c0-0.372,0.229-1,1.087-1
		c0.803,0,1.087,0.553,1.087,1.025V27.524z M25.312,23.707c-0.065,0-0.131-0.011-0.195-0.03c-0.203-0.061-0.389-0.211-0.554-0.446
		c-0.146-0.209-0.22-0.428-0.218-0.649c0-0.233,0.106-0.429,0.315-0.58l1.625-1.135c0.163-0.116,0.375-0.149,0.622-0.093
		c0.241,0.057,0.439,0.192,0.588,0.403c0.167,0.239,0.23,0.479,0.191,0.715c-0.042,0.233-0.146,0.411-0.309,0.529l-1.626,1.135
		C25.611,23.656,25.462,23.707,25.312,23.707z M30.143,27.489c-0.637,0.679-1.524,1.039-2.568,1.039
		c-0.593,0-1.076-0.482-1.076-1.075c0-0.594,0.483-1.077,1.076-1.077c0.443,0,0.769-0.116,0.994-0.356
		c0.506-0.541,0.485-1.565,0.481-1.681l-0.003-11.825c0-0.694,0.383-1.077,1.078-1.077c0.673,0,1.075,0.402,1.075,1.077v11.751
		C31.201,24.275,31.345,26.197,30.143,27.489z"/>
</g>
</svg>
